<?xml version="1.0" standalone="no"?>
<!DOCTYPE svg PUBLIC "-//W3C//DTD SVG 20010904//EN"
 "http://www.w3.org/TR/2001/REC-SVG-20010904/DTD/svg10.dtd">
<svg version="1.0" xmlns="http://www.w3.org/2000/svg"
 width="2480.000000pt" height="1275.000000pt" viewBox="0 0 2480.000000 1275.000000"
 preserveAspectRatio="xMidYMid meet">

<g transform="translate(0.000000,1275.000000) scale(0.100000,-0.100000)"
fill="#000000" stroke="none">
<path d="M3845 11894 c-64 -11 -231 -56 -274 -75 -240 -106 -391 -470 -307
-744 9 -27 16 -75 16 -105 0 -132 46 -348 106 -503 29 -77 33 -95 24 -121 -31
-93 -165 -173 -434 -256 l-120 -37 -54 34 c-279 179 -543 210 -778 92 -102
-51 -142 -52 -168 -5 -30 56 -97 124 -159 160 -114 67 -239 69 -364 5 -32 -16
-63 -29 -69 -29 -8 0 -4 42 12 133 20 111 24 165 24 344 0 211 0 212 30 295
17 46 39 94 50 108 l19 25 24 -23 c46 -43 319 -112 445 -112 39 0 89 42 113
95 23 50 25 176 4 294 -23 134 -39 143 -285 162 -180 14 -227 8 -337 -45 -126
-61 -196 -111 -238 -171 -40 -58 -131 -164 -323 -376 -251 -277 -344 -457
-371 -719 -6 -52 -24 -144 -40 -205 -63 -231 -46 -273 208 -522 97 -94 209
-198 248 -232 200 -166 384 -252 618 -287 118 -18 162 -15 389 30 106 21 166
29 166 22 0 -6 5 -51 11 -101 54 -444 365 -1028 778 -1459 127 -131 155 -180
171 -298 13 -89 0 -213 -30 -304 -10 -33 -68 -156 -128 -274 -230 -454 -344
-819 -398 -1270 -22 -180 -24 -575 -5 -775 12 -123 18 -153 56 -250 92 -237
121 -360 113 -484 -5 -69 -10 -85 -58 -171 -188 -336 -239 -509 -227 -765 8
-155 24 -246 98 -545 80 -323 97 -412 111 -555 11 -114 10 -124 -10 -185 -12
-35 -22 -80 -22 -99 0 -48 -36 -122 -165 -336 -115 -190 -178 -321 -173 -357
8 -56 94 -78 302 -78 236 0 483 37 530 78 55 50 65 138 41 351 -12 105 -15
184 -11 245 4 50 6 156 6 236 -2 183 14 323 50 425 81 234 210 530 311 717
l62 112 -7 86 c-6 95 -39 240 -91 404 l-35 109 70 216 c123 382 333 991 341
991 10 0 -5 53 159 -577 l141 -542 -72 -107 c-158 -234 -239 -446 -239 -624 0
-58 6 -81 36 -147 104 -228 155 -443 155 -653 0 -191 -29 -338 -122 -627 -58
-181 -53 -279 17 -362 42 -51 90 -69 210 -81 60 -6 217 -26 349 -45 315 -44
385 -50 465 -35 72 13 156 54 172 83 23 43 5 59 -163 142 -257 127 -346 193
-412 306 -63 108 -95 279 -77 410 23 163 74 283 246 571 180 302 241 457 251
649 7 118 -4 182 -64 379 -57 189 -47 231 160 670 151 321 214 478 257 646 90
347 77 659 -41 1030 -58 180 -118 327 -274 670 -116 256 -135 304 -135 347 0
54 -32 134 -56 144 -30 11 -5 200 48 368 l32 100 166 171 c207 212 256 273
362 449 47 77 115 188 151 246 146 237 186 344 217 592 12 92 14 98 34 93 138
-33 492 -40 646 -13 136 25 207 51 307 113 278 174 581 468 661 643 46 99 35
195 -69 606 -34 137 -103 260 -297 530 -196 272 -227 317 -282 408 -63 103
-134 173 -218 216 l-61 31 -230 0 c-132 0 -252 -5 -282 -11 -65 -14 -99 -46
-99 -92 0 -18 -9 -67 -20 -108 -46 -175 -6 -254 145 -288 99 -22 173 -17 266
17 47 18 113 35 145 38 l59 6 43 -65 c60 -89 71 -128 78 -275 5 -99 3 -146
-11 -212 -9 -47 -19 -156 -22 -242 -3 -87 -7 -158 -9 -158 -2 0 -26 16 -53 35
-65 47 -120 65 -201 65 -55 0 -78 -6 -128 -31 -65 -32 -140 -106 -173 -171
-11 -21 -21 -38 -24 -38 -2 0 -51 24 -109 54 -146 75 -216 91 -401 91 -113 0
-166 -4 -215 -18 -78 -21 -192 -74 -256 -118 -40 -28 -52 -31 -91 -25 -25 3
-105 31 -179 62 -105 45 -142 65 -169 95 -90 100 -95 225 -17 459 29 88 36
126 42 235 4 72 15 164 25 205 30 131 23 296 -20 445 -20 68 -120 220 -176
268 -62 54 -152 79 -294 82 -66 2 -133 1 -150 -1z"/>
<path d="M8077 8598 c-3 -2620 -4 -2869 -19 -2935 -21 -90 -51 -160 -85 -195
-55 -58 -187 -94 -380 -105 l-123 -6 0 -634 0 -633 288 0 c659 0 1173 38 1440
105 53 14 142 47 197 74 302 147 473 404 550 830 50 275 48 194 52 2609 l4
2282 279 0 280 0 0 -2950 0 -2950 960 0 960 0 0 3685 0 3685 -2200 0 -2200 0
-3 -2862z"/>
<path d="M15930 7775 l0 -3685 960 0 960 0 0 2950 0 2950 700 0 700 0 0 735 0
735 -1660 0 -1660 0 0 -3685z"/>
<path d="M13250 7770 l0 -3680 955 0 955 0 0 3680 0 3680 -955 0 -955 0 0
-3680z"/>
<path d="M20306 11423 c-3 -16 -222 -1661 -486 -3658 -264 -1996 -483 -3640
-485 -3653 l-5 -22 990 0 c544 0 990 3 991 8 0 4 26 300 57 657 l57 650 342 3
342 2 5 -32 c3 -18 27 -315 53 -660 l47 -628 979 0 979 0 -6 33 c-10 57 -1086
7301 -1086 7314 0 11 -266 13 -1384 13 l-1384 0 -6 -27z m1504 -2083 c62 -768
153 -1736 220 -2338 17 -145 30 -268 30 -273 0 -5 -136 -9 -331 -9 l-331 0 6
38 c3 20 8 73 11 117 32 423 154 1459 296 2515 37 274 56 385 61 365 4 -17 21
-203 38 -415z"/>
<path d="M8300 2922 l0 -108 -97 -18 c-470 -88 -734 -359 -733 -753 0 -127 20
-219 69 -319 110 -222 368 -387 679 -435 l82 -12 0 -114 0 -113 230 0 230 0 0
114 0 114 55 7 c73 9 218 48 296 80 172 70 329 207 398 347 59 120 75 191 75
333 0 138 -16 214 -69 320 -108 220 -337 369 -664 431 l-91 18 0 108 0 108
-230 0 -230 0 0 -108z m0 -872 l0 -330 -24 0 c-40 0 -149 38 -198 69 -55 35
-104 98 -119 154 -6 22 -10 73 -10 114 1 157 82 253 256 304 105 31 95 65 95
-311z m544 314 c185 -48 275 -164 264 -343 -10 -161 -97 -251 -285 -295 l-63
-14 0 334 c0 237 3 334 11 334 6 0 39 -7 73 -16z"/>
<path d="M16005 3013 c-334 -41 -601 -230 -745 -527 -74 -151 -94 -246 -94
-441 0 -132 4 -176 22 -249 42 -168 114 -302 228 -425 119 -129 284 -228 454
-272 105 -27 311 -37 419 -20 175 27 361 114 490 228 57 51 161 178 161 198 0
9 -367 228 -396 237 -6 2 -27 -17 -46 -42 -80 -105 -209 -162 -368 -162 -240
0 -416 132 -475 353 -19 68 -19 238 -1 305 44 166 174 296 339 340 66 17 207
18 272 0 102 -27 195 -89 251 -169 l19 -27 200 115 c110 63 201 119 203 125
12 35 -189 237 -304 304 -182 107 -420 155 -629 129z"/>
<path d="M9790 2045 l0 -935 240 0 240 0 0 935 0 935 -240 0 -240 0 0 -935z"/>
<path d="M10440 2750 l0 -230 233 -2 232 -3 3 -702 2 -703 235 0 235 0 0 705
0 705 235 0 235 0 0 230 0 230 -705 0 -705 0 0 -230z"/>
<path d="M12020 2045 l0 -935 240 0 240 0 0 360 0 360 265 0 265 0 0 -360 0
-360 235 0 235 0 0 935 0 935 -235 0 -235 0 0 -345 0 -345 -265 0 -265 0 0
345 0 345 -240 0 -240 0 0 -935z"/>
<path d="M13800 2045 l0 -935 600 0 600 0 0 225 0 225 -360 0 -360 0 0 135 0
135 320 0 320 0 0 220 0 220 -320 0 -320 0 0 130 0 130 355 0 355 0 0 225 0
225 -595 0 -595 0 0 -935z"/>
<path d="M17760 2045 l0 -935 240 0 240 0 2 416 3 416 264 -412 c146 -227 269
-414 275 -416 6 -2 127 -3 269 -2 l257 3 -305 473 c-168 261 -305 478 -305
483 0 4 129 205 286 446 157 241 288 444 291 451 4 9 -52 12 -259 12 l-265 0
-254 -392 -254 -392 -3 392 -2 392 -240 0 -240 0 0 -935z"/>
<path d="M19608 2363 c-4 -545 -6 -624 -21 -669 -33 -101 -94 -143 -204 -144
l-63 0 0 -220 0 -219 37 -7 c50 -9 205 2 278 21 219 56 352 193 417 430 21 76
22 104 26 523 l3 442 190 0 189 0 0 -705 0 -705 240 0 240 0 0 935 0 935 -664
0 -664 0 -4 -617z"/>
<path d="M21130 2975 c0 -5 558 -1183 592 -1248 l19 -39 -37 -34 c-69 -66
-175 -104 -289 -104 l-55 0 0 -220 0 -220 85 0 c315 0 561 163 720 477 19 37
158 365 309 728 l275 660 -241 3 c-159 1 -244 -1 -248 -8 -3 -6 -71 -177 -151
-380 -79 -203 -147 -366 -151 -362 -3 4 -82 175 -174 380 l-167 372 -243 0
c-134 0 -244 -2 -244 -5z"/>
<path d="M22920 2045 l0 -935 430 0 c483 0 529 5 658 67 136 64 248 202 286
349 21 81 21 270 1 349 -37 141 -143 274 -271 338 -121 61 -165 69 -411 74
l-223 5 0 114 0 114 385 0 385 0 0 230 0 230 -620 0 -620 0 0 -935z m840 -207
c60 -31 82 -74 77 -150 -2 -44 -9 -64 -28 -84 -46 -50 -66 -54 -249 -54 l-170
0 0 155 0 155 163 0 c149 0 167 -2 207 -22z"/>
</g>
</svg>
